<svg width="50" height="50" viewBox="0 0 50 50" fill="none" xmlns="http://www.w3.org/2000/svg">
<rect width="50" height="50" rx="25" fill="#F40000"/>
<path fill-rule="evenodd" clip-rule="evenodd" d="M14.0781 33.821C13.5878 33.676 13.1404 33.4179 12.7737 33.0686C12.407 32.7193 12.1318 32.289 11.9712 31.814C11.0537 29.3592 10.7818 19.1087 12.5489 17.0851C13.137 16.4268 13.9674 16.0215 14.8597 15.9572C19.6003 15.4596 34.2468 15.5259 35.929 16.1231C36.4021 16.2729 36.8344 16.5253 37.1934 16.8614C37.5524 17.1975 37.8288 17.6085 38.0019 18.0637C39.0044 20.6015 39.0384 29.8236 37.866 32.2619C37.555 32.8966 37.0343 33.4107 36.3878 33.7215C34.6207 34.584 16.4229 34.5674 14.0781 33.821ZM21.6053 29.0109L30.101 24.6984L21.6053 20.3527V29.0109Z" fill="white"/>
</svg>
